HIERARCHY
ROOT Model_Hips
{
	OFFSET 0.000000 96.915077 0.000000
	CHANNELS 6 Xposition Yposition Zposition Xrotation Yrotation Zrotation
	JOINT Model_Spine
	{
		OFFSET 0.000000 11.137703 -1.289900
		CHANNELS 3 Xrotation Yrotation Zrotation
		JOINT Model_Spine1
		{
			OFFSET 0.000000 12.993942 -1.504922
			CHANNELS 3 Xrotation Yrotation Zrotation
			JOINT Model_Spine2
			{
				OFFSET 0.000000 14.850220 -1.719911
				CHANNELS 3 Xrotation Yrotation Zrotation
				JOINT Model_Neck
				{
					OFFSET 0.000000 16.706543 -1.934903
					CHANNELS 3 Xrotation Yrotation Zrotation
					JOINT Model_Head
					{
						OFFSET 0.000000 10.471298 2.002100
						CHANNELS 3 Xrotation Yrotation Zrotation
						JOINT Model_HeadTop_End
						{
							OFFSET 0.000000 20.842606 3.985100
							CHANNELS 3 Xrotation Yrotation Zrotation
							End Site
							{
								OFFSET 0.000000 21.220154 0.000000
							}
						}
					}
				}
				JOINT Model_LeftShoulder
				{
					OFFSET 7.008500 14.768600 -1.919946
					CHANNELS 3 Xrotation Yrotation Zrotation
					JOINT Model_LeftArm
					{
						OFFSET 14.126271 -3.718048 0.029937
						CHANNELS 3 Xrotation Yrotation Zrotation
						JOINT Model_LeftForeArm
						{
							OFFSET 28.282801 0.000000 0.000000
							CHANNELS 3 Xrotation Yrotation Zrotation
							JOINT Model_LeftHand
							{
								OFFSET 26.204689 0.000000 0.000000
								CHANNELS 3 Xrotation Yrotation Zrotation
								End Site
								{
									OFFSET 26.204704 0.000000 0.000000
								}
							}
						}
					}
				}
				JOINT Model_RightShoulder
				{
					OFFSET -7.008500 14.768555 -1.949840
					CHANNELS 3 Xrotation Yrotation Zrotation
					JOINT Model_RightArm
					{
						OFFSET -14.126281 -3.718018 -0.029932
						CHANNELS 3 Xrotation Yrotation Zrotation
						JOINT Model_RightForeArm
						{
							OFFSET -28.283798 0.000000 -0.000001
							CHANNELS 3 Xrotation Yrotation Zrotation
							JOINT Model_RightHand
							{
								OFFSET -26.204193 0.000000 -0.000001
								CHANNELS 3 Xrotation Yrotation Zrotation
								End Site
								{
									OFFSET -26.204208 0.000000 -0.000001
								}
							}
						}
					}
				}
			}
		}
	}
	JOINT Model_LeftUpLeg
	{
		OFFSET 8.327700 -6.193199 -0.402800
		CHANNELS 3 Xrotation Yrotation Zrotation
		JOINT Model_LeftLeg
		{
			OFFSET 0.735802 -42.108742 -0.610721
			CHANNELS 3 Xrotation Yrotation Zrotation
			JOINT Model_LeftFoot
			{
				OFFSET -0.735806 -36.833748 -0.172876
				CHANNELS 3 Xrotation Yrotation Zrotation
				JOINT Model_LeftToeBase
				{
					OFFSET -0.565857 -11.977769 16.297714
					CHANNELS 3 Xrotation Yrotation Zrotation
					JOINT Model_LeftToe_End
					{
						OFFSET -0.111712 -0.312793 7.857784
						CHANNELS 3 Xrotation Yrotation Zrotation
						End Site
						{
							OFFSET -0.111712 -0.312793 7.857784
						}
					}
				}
			}
		}
	}
	JOINT Model_RightUpLeg
	{
		OFFSET -8.327700 -6.193199 -0.516500
		CHANNELS 3 Xrotation Yrotation Zrotation
		JOINT Model_RightLeg
		{
			OFFSET -0.735785 -42.108738 -0.434061
			CHANNELS 3 Xrotation Yrotation Zrotation
			JOINT Model_RightFoot
			{
				OFFSET 0.735776 -36.833748 -0.021630
				CHANNELS 3 Xrotation Yrotation Zrotation
				JOINT Model_RightToeBase
				{
					OFFSET 0.565817 -11.977745 15.903093
					CHANNELS 3 Xrotation Yrotation Zrotation
					JOINT Model_RightToe_End
					{
						OFFSET 0.111702 -0.312791 7.811342
						CHANNELS 3 Xrotation Yrotation Zrotation
						End Site
						{
							OFFSET 0.111702 -0.312791 7.811342
						}
					}
				}
			}
		}
	}
}
MOTION
Frames: 11
Frame Time: 0.033333
0.170584 96.335754 0.305657 -3.749905 -6.080587 -4.392307 3.283810 1.582979 3.535985 1.158074 0.357947 1.691010 1.131803 0.383460 1.696558 5.626310 -0.078964 0.454684 5.621597 -0.099935 0.491954 -0.000001 -0.000000 -0.000000 1.049459 -17.442076 -12.319383 3.916252 -19.989254 -69.765253 0.000003 -1.459347 0.000008 -0.000003 0.000000 -0.000000 1.203140 15.343653 14.705935 13.158856 27.555118 58.785171 0.000006 6.693743 0.000009 -0.000003 0.000001 -0.000001 -18.146114 32.311627 16.204842 19.747096 -7.287236 5.877692 -4.549716 -8.395174 -5.961950 -4.928524 0.000003 0.000000 -0.000000 -0.000001 -0.000000 0.250598 -10.512602 4.301304 12.668535 -9.882309 -3.285722 -8.463820 -1.843013 3.715894 -7.282868 -0.000004 -0.000003 0.000000 0.000001 0.000000 
0.001483 96.278137 -0.392526 -2.955864 -2.391391 -3.846003 3.360849 1.829124 3.623943 1.248463 0.509766 1.699851 1.218347 0.536308 1.655904 5.523489 0.612423 0.100401 5.536308 0.572832 0.110193 0.000000 -0.000000 0.000000 0.993332 -17.560109 -12.568240 2.639227 -19.942848 -69.046642 -0.000003 -2.239523 0.000010 -0.000000 0.000000 0.000000 1.250875 15.407587 14.460542 13.944143 27.532108 58.271738 0.000008 6.984346 -0.000012 -0.000003 0.000000 0.000000 -20.480611 32.075914 16.958711 20.640780 -7.749065 4.328000 -3.941307 -10.850047 -6.175900 -4.410399 0.000008 -0.000003 -0.000000 0.000001 -0.000000 -1.126009 -14.250520 3.801462 13.988093 -9.987869 -3.285755 -9.086874 -1.850631 3.649178 -7.282865 0.000018 0.000002 -0.000000 0.000001 0.000000 
-0.358764 96.250526 -1.145167 -2.396737 1.512780 -3.329384 3.476711 2.022563 3.635664 1.360987 0.633287 1.808119 1.327582 0.653675 1.648438 5.696209 1.810648 -0.444569 5.749579 1.729911 -0.494237 -0.000000 -0.000001 -0.000000 0.903959 -17.718581 -12.975326 1.090650 -20.084019 -67.914497 -0.000005 -2.649988 -0.000003 -0.000001 -0.000001 -0.000001 1.302104 15.431557 14.221612 14.812047 27.087333 57.658708 -0.000015 7.436508 0.000006 0.000002 0.000000 -0.000000 -23.327685 31.660529 18.170190 22.721254 -8.371553 2.947912 -3.783077 -11.421335 -8.842650 -3.966222 0.000001 0.000001 -0.000000 -0.000002 0.000000 -2.160869 -18.137723 3.301706 14.931632 -10.021167 -3.286361 -9.557543 -1.944011 3.433969 -7.282868 0.000012 0.000001 0.000000 0.000002 0.000000 
-0.851929 96.248680 -1.999826 -2.055426 5.387425 -2.944179 3.636268 2.183168 3.441744 1.508137 0.768461 2.007244 1.472463 0.772459 1.662641 6.149355 3.407267 -1.100997 6.265619 3.266244 -1.234893 0.000003 -0.000001 0.000000 0.798224 -17.841960 -13.465082 -0.464900 -20.240545 -66.462249 -0.000003 -3.141153 -0.000009 -0.000001 0.000000 0.000000 1.340703 15.393438 14.035481 15.679667 26.293585 57.004728 0.000010 7.981922 0.000001 -0.000000 -0.000000 0.000000 -25.146460 31.553756 19.166112 24.172142 -9.125608 1.490720 -3.549266 -8.512337 -10.750659 -3.681228 -0.000015 0.000006 0.000000 0.000001 0.000001 -2.867616 -21.976890 2.955527 15.413473 -10.031348 -3.287544 -9.761734 -2.033592 3.077359 -7.282865 0.000010 0.000003 0.000000 -0.000000 -0.000000 
-1.504475 96.420334 -2.908183 -1.896246 8.927532 -2.434945 3.813168 2.344027 2.960515 1.670636 0.951751 2.262535 1.633985 0.928849 1.672045 6.781615 5.159157 -1.736651 6.975567 4.948228 -1.962968 0.000001 -0.000002 0.000000 0.700313 -17.868536 -13.939879 -1.733492 -20.109272 -64.863636 0.000003 -4.111391 0.000002 -0.000000 -0.000001 0.000001 1.361201 15.311915 13.937109 16.584990 25.394546 56.289020 0.000012 8.561381 -0.000008 -0.000000 -0.000000 -0.000000 -25.602746 31.751852 19.665573 24.805874 -9.496171 -0.090793 -1.895269 0.149192 -8.755052 -3.793420 0.000008 -0.000001 0.000001 0.000003 0.000002 -2.693259 -25.607885 2.845208 14.142124 -10.049299 -3.288984 -9.038963 -1.856044 2.476272 -7.282873 -0.000004 0.000001 0.000001 0.000002 0.000000 
-2.247545 96.653671 -3.799808 -1.877570 12.047754 -1.840154 3.948032 2.537329 2.309029 1.795391 1.187616 2.547528 1.758969 1.129212 1.669387 7.419463 6.745889 -2.224739 7.691664 6.468749 -2.530596 0.000001 0.000002 -0.000000 0.620000 -17.802176 -14.371667 -2.340155 -19.415142 -63.252469 -0.000009 -6.040777 0.000001 -0.000001 0.000001 0.000002 1.363688 15.236141 13.926420 17.599579 24.566316 55.454313 0.000019 9.126233 -0.000011 0.000003 -0.000000 -0.000000 -25.527991 31.488999 20.388183 25.966789 -0.108740 -1.825211 0.627906 5.731510 -6.313867 -4.334260 -0.001317 0.276199 -0.000000 -0.000002 0.000001 -2.037924 -28.831318 2.960180 11.993698 -9.984165 -3.288787 -7.847390 -1.686222 1.737561 -7.282868 -0.000001 -0.000000 0.000001 0.000001 0.000000 
-2.947240 96.736191 -4.628005 -1.951953 14.733640 -1.522795 3.986680 2.753549 1.725567 1.834594 1.433758 2.866250 1.799514 1.333817 1.666014 7.916735 7.920459 -2.518871 8.253737 7.591352 -2.876798 0.000002 0.000000 -0.000000 0.545710 -17.685802 -14.817037 -2.109045 -18.211456 -61.628776 -0.000016 -8.883537 0.000007 -0.000002 0.000000 -0.000000 1.354845 15.186982 13.971528 18.701999 23.771597 54.496546 0.000006 9.676174 -0.000004 0.000005 -0.000000 -0.000000 -25.197254 31.215757 21.378642 27.096563 2.988740 -2.857520 3.083147 19.245856 -6.056658 -5.667579 -0.026205 1.243419 0.000000 -0.000000 -0.000000 -1.814930 -31.562547 3.159910 11.061105 -9.942889 -3.289023 -7.281948 -1.640498 1.123141 -7.282868 0.000008 0.000001 0.000001 0.000002 0.000000 
-3.564881 96.741638 -5.412111 -2.031952 17.145694 -1.334934 3.933580 2.923807 1.228942 1.791096 1.624885 3.224616 1.758612 1.479798 1.672354 8.209125 8.621009 -2.659232 8.591563 8.256866 -3.040196 -0.000000 -0.000000 -0.000000 0.461960 -17.565455 -15.315345 -1.134030 -16.820832 -59.958085 -0.000008 -12.100334 -0.000009 -0.000001 -0.000000 -0.000001 1.340683 15.123133 14.042423 19.828697 22.894731 53.466273 0.000012 10.320128 0.000010 -0.000001 0.000000 -0.000000 -24.082723 30.932414 21.720140 28.566904 4.894521 -3.979512 2.533330 26.788618 -5.522804 -6.204828 0.013652 -0.709018 0.000001 -0.000000 -0.000000 -1.988761 -34.002096 3.238354 10.925499 -9.959528 -3.289249 -7.109929 -1.608903 0.633446 -7.282871 0.000005 0.000002 -0.000000 -0.000002 -0.000000 
-4.102566 96.792892 -6.162068 -2.121020 19.602793 -1.000651 3.842604 3.021316 0.769084 1.713362 1.745364 3.616359 1.684857 1.553521 1.694922 8.322984 8.952180 -2.719846 8.734997 8.565300 -3.103059 0.000002 -0.000000 -0.000000 0.365485 -17.490209 -15.836412 0.440097 -15.460181 -58.316988 0.000005 -15.430239 0.000014 0.000000 0.000000 0.000001 1.322641 14.980111 14.132964 20.996203 21.867161 52.418280 0.000006 11.204784 0.000002 0.000001 0.000000 0.000001 -22.191254 30.944766 20.971466 29.826442 5.083574 -4.750187 -2.147160 29.977574 -3.739569 -6.019691 -0.000037 -0.000003 0.000000 0.000000 -0.000000 -2.050787 -36.470123 3.171069 10.371321 -9.951016 -3.288398 -6.701041 -1.578675 0.187893 -7.282867 -0.000005 -0.000001 0.000001 -0.000000 0.000000 
-4.486006 96.795273 -6.865105 -2.357120 22.136918 -0.725758 3.751181 3.135364 0.472394 1.634086 1.874271 4.034894 1.610893 1.635341 1.739588 8.346397 9.039213 -2.750585 8.777345 8.635947 -3.122634 -0.000000 -0.000002 0.000001 0.283177 -17.437268 -16.347137 2.369544 -14.214219 -56.919996 -0.000008 -18.513930 -0.000003 0.000000 0.000000 0.000003 1.302452 14.747357 14.236171 22.294014 20.692886 51.379336 0.000004 12.314702 -0.000004 -0.000001 0.000000 -0.000000 -19.926828 32.069927 20.099788 29.943351 6.208859 -5.005249 -7.421734 29.984056 -2.215702 -6.837678 -0.000024 0.000004 0.000000 -0.000000 0.000000 -2.252629 -39.002907 2.904044 10.390794 -9.974135 -3.287443 -6.580634 -1.559949 -0.075611 -7.282867 0.000012 0.000001 0.000000 0.000001 0.000000 
-4.645268 96.717941 -7.533012 -2.769690 24.465133 -0.647646 3.637039 3.370672 0.572472 1.525476 2.104208 4.451420 1.508920 1.818631 1.790778 8.369688 8.950031 -2.768014 8.810584 8.534479 -3.119119 -0.000002 -0.000000 0.000000 0.290064 -17.203283 -16.878634 4.463246 -13.155777 -56.050762 -0.000001 -20.972504 0.000003 -0.000000 -0.000000 -0.000001 1.287488 14.497336 14.315082 23.723706 19.449266 50.343750 0.000004 13.400239 -0.000003 -0.000001 0.000000 -0.000001 -17.286997 34.049415 18.903522 28.107579 5.980537 -3.849031 -11.152151 29.986709 -1.868727 -7.328226 -0.000014 0.000002 0.000001 -0.000000 -0.000000 -2.604402 -41.307775 2.501654 11.170038 -10.052029 -3.286724 -6.803988 -1.553466 -0.124606 -7.282868 0.000017 0.000000 0.000001 0.000001 0.000000 
